<svg width="26" height="30" viewBox="0 0 26 30" fill="none" xmlns="http://www.w3.org/2000/svg">
<g id="Vector">
<path fill-rule="evenodd" clip-rule="evenodd" d="M5.63828 24.0065L6.58703 23.4362C7.53577 22.8659 9.43325 21.7253 11.3307 20.9269C13.2282 20.1284 15.1257 19.6722 17.0232 20.2425C18.9207 20.8128 20.8182 22.4097 22.7156 22.7518C24.6131 23.094 22.9328 22.9007 23.8815 22.4445L23.1733 23.9432L22.9263 24.4538L21.6746 24.882C20.7258 24.882 23.0121 25.8702 21.1146 25.8702C19.2171 25.8702 18.9207 26.0596 17.0232 26.0596C15.1257 26.0596 13.2282 26.0596 11.3307 26.0596C9.43325 26.0596 8.57437 25.2608 7.62562 25.2608L6.58703 24.9808L5.63828 24.0065Z" fill="#6ABFF7"/>
<path fill-rule="evenodd" clip-rule="evenodd" d="M7.39496 25.2938L6.47264 23.5644C7.42138 22.9941 4.44559 21.7253 6.34307 20.9269C8.24055 20.1284 10.138 19.6722 12.0355 20.2425C13.933 20.8128 15.8305 22.4097 17.728 22.7518C19.6255 23.094 21.5229 22.1815 22.4717 21.7253L23.4204 21.269L21.7734 25.442L21.2628 25.7549C20.3141 25.7549 19.6255 26.0596 17.728 26.0596C15.8305 26.0596 13.933 26.0596 12.0355 26.0596C10.138 26.0596 11.0713 26.6608 9.17382 26.6608C7.27633 26.6608 9.41435 26.7925 8.46561 26.7925L7.24678 25.7549L7.39496 25.2938Z" fill="#83CDFF"/>
<path fill-rule="evenodd" clip-rule="evenodd" d="M6.74727 25.0908L7.69602 24.5205C8.64476 23.9502 10.5422 22.8096 12.4397 22.0111C14.3372 21.2127 16.2347 20.7565 18.1322 21.3268C20.0297 21.8971 21.9271 23.4939 23.8246 23.8361C22.251 25.4255 20.907 24.9767 21.8557 24.5205L20.9663 25.4255L20.7357 26.0843V26.5455C19.787 26.5455 20.5909 26.7925 18.6934 26.7925C16.796 26.7925 20.0297 27.1439 18.1322 27.1439C16.2347 27.1439 14.3372 27.1439 12.4397 27.1439C10.5422 27.1439 9.66139 27.1439 8.71264 27.1439L8.59732 26.5455L6.74727 25.0908Z" fill="#B5E1FF"/>
<path d="M7.37312 7.62691H14.5294C20.5176 7.62691 25.3721 12.4814 25.3721 18.4697C25.3721 24.458 20.5176 29.3124 14.5294 29.3124C8.54106 29.3124 3.68658 24.458 3.68658 18.4697V11.3135H7.3731V18.4697C7.3731 22.4219 10.5771 25.6259 14.5293 25.6259C18.4816 25.6259 21.6856 22.4219 21.6856 18.4697C21.6856 14.5174 18.4816 11.3134 14.5293 11.3134L7.3731 11.3135L7.37312 7.62691Z" fill="url(#paint0_linear_85_8166)"/>
<path d="M3.68929 0.75343C3.68929 0.717045 3.71878 0.68755 3.75517 0.68755H7.30995C7.34633 0.68755 7.37583 0.717045 7.37583 0.75343V7.62692H3.68929V0.75343Z" fill="url(#paint1_linear_85_8166)"/>
<path d="M0 7.69281C0 7.65643 0.0294955 7.62693 0.0658801 7.62693H3.68654L3.68658 11.3135L0.0658801 11.3135C0.0294955 11.3135 0 11.284 0 11.2476V7.69281Z" fill="url(#paint2_linear_85_8166)"/>
</g>
<defs>
<linearGradient id="paint0_linear_85_8166" x1="1.7761" y1="8.08461" x2="1.85079" y2="11.4358" gradientUnits="userSpaceOnUse">
<stop stop-color="#3C9CE8"/>
<stop offset="0.2926" stop-color="#27AAE1"/>
<stop offset="0.9879" stop-color="#08BFF7"/>
</linearGradient>
<linearGradient id="paint1_linear_85_8166" x1="1.7761" y1="8.08461" x2="1.85079" y2="11.4358" gradientUnits="userSpaceOnUse">
<stop stop-color="#3C9CE8"/>
<stop offset="0.2926" stop-color="#27AAE1"/>
<stop offset="0.9879" stop-color="#08BFF7"/>
</linearGradient>
<linearGradient id="paint2_linear_85_8166" x1="1.7761" y1="8.08461" x2="1.85079" y2="11.4358" gradientUnits="userSpaceOnUse">
<stop stop-color="#3C9CE8"/>
<stop offset="0.2926" stop-color="#27AAE1"/>
<stop offset="0.9879" stop-color="#08BFF7"/>
</linearGradient>
</defs>
</svg>
