<svg width="123" height="30" viewBox="0 0 123 30" fill="none" xmlns="http://www.w3.org/2000/svg">
<path fill-rule="evenodd" clip-rule="evenodd" d="M5.63828 24.0065L6.58703 23.4362C7.53577 22.8659 9.43325 21.7253 11.3307 20.9269C13.2282 20.1284 15.1257 19.6722 17.0232 20.2425C18.9207 20.8128 20.8182 22.4097 22.7156 22.7518C24.6131 23.094 22.9328 22.9007 23.8815 22.4445L23.1733 23.9432L22.9263 24.4538L21.6746 24.882C20.7258 24.882 23.0121 25.8702 21.1146 25.8702C19.2171 25.8702 18.9207 26.0596 17.0232 26.0596C15.1257 26.0596 13.2282 26.0596 11.3307 26.0596C9.43325 26.0596 8.57437 25.2608 7.62562 25.2608L6.58703 24.9808L5.63828 24.0065Z" fill="#6ABFF7"/>
<path fill-rule="evenodd" clip-rule="evenodd" d="M7.39496 25.2938L6.47264 23.5644C7.42138 22.9941 4.44559 21.7253 6.34307 20.9269C8.24055 20.1284 10.138 19.6722 12.0355 20.2425C13.933 20.8128 15.8305 22.4097 17.728 22.7518C19.6255 23.094 21.5229 22.1815 22.4717 21.7253L23.4204 21.269L21.7734 25.442L21.2628 25.7549C20.3141 25.7549 19.6255 26.0596 17.728 26.0596C15.8305 26.0596 13.933 26.0596 12.0355 26.0596C10.138 26.0596 11.0713 26.6608 9.17382 26.6608C7.27633 26.6608 9.41435 26.7925 8.46561 26.7925L7.24678 25.7549L7.39496 25.2938Z" fill="#83CDFF"/>
<path fill-rule="evenodd" clip-rule="evenodd" d="M6.74727 25.0908L7.69602 24.5205C8.64476 23.9502 10.5422 22.8096 12.4397 22.0111C14.3372 21.2127 16.2347 20.7565 18.1322 21.3268C20.0297 21.8971 21.9271 23.4939 23.8246 23.8361C22.251 25.4255 20.907 24.9767 21.8557 24.5205L20.9663 25.4255L20.7357 26.0843V26.5455C19.787 26.5455 20.5909 26.7925 18.6934 26.7925C16.796 26.7925 20.0297 27.1439 18.1322 27.1439C16.2347 27.1439 14.3372 27.1439 12.4397 27.1439C10.5422 27.1439 9.66139 27.1439 8.71264 27.1439L8.59732 26.5455L6.74727 25.0908Z" fill="#B5E1FF"/>
<path d="M7.37312 7.62691H14.5294C20.5176 7.62691 25.3721 12.4814 25.3721 18.4697C25.3721 24.458 20.5176 29.3124 14.5294 29.3124C8.54106 29.3124 3.68658 24.458 3.68658 18.4697V11.3135H7.3731V18.4697C7.3731 22.4219 10.5771 25.6259 14.5293 25.6259C18.4816 25.6259 21.6856 22.4219 21.6856 18.4697C21.6856 14.5174 18.4816 11.3134 14.5293 11.3134L7.3731 11.3135L7.37312 7.62691Z" fill="url(#paint0_linear_85_8163)"/>
<path d="M3.68929 0.75343C3.68929 0.717045 3.71878 0.68755 3.75517 0.68755H7.30995C7.34633 0.68755 7.37583 0.717045 7.37583 0.75343V7.62692H3.68929V0.75343Z" fill="url(#paint1_linear_85_8163)"/>
<path d="M0 7.69281C0 7.65643 0.0294955 7.62693 0.0658801 7.62693H3.68654L3.68658 11.3135L0.0658801 11.3135C0.0294955 11.3135 0 11.284 0 11.2476V7.69281Z" fill="url(#paint2_linear_85_8163)"/>
<path d="M37.5531 7.14607C38.4344 7.14607 39.2196 7.33814 39.9088 7.72227C40.6093 8.10641 41.1572 8.64872 41.5526 9.3492C41.9481 10.0497 42.1458 10.8575 42.1458 11.7726C42.1458 12.6878 41.9481 13.5012 41.5526 14.213C41.1572 14.9135 40.6093 15.4558 39.9088 15.8399C39.2196 16.2241 38.4344 16.4161 37.5531 16.4161C36.9317 16.4161 36.3612 16.3088 35.8415 16.0942C35.3331 15.8795 34.9037 15.5575 34.5535 15.1282V16.2975H32.5368V3.72275H34.6552V8.34932C35.0167 7.95388 35.4404 7.65448 35.9262 7.45112C36.4233 7.24775 36.9656 7.14607 37.5531 7.14607ZM37.3159 14.6028C38.0954 14.6028 38.7338 14.343 39.2309 13.8232C39.7393 13.3035 39.9935 12.62 39.9935 11.7726C39.9935 10.9253 39.7393 10.2417 39.2309 9.72203C38.7338 9.20232 38.0954 8.94247 37.3159 8.94247C36.8075 8.94247 36.3499 9.0611 35.9431 9.29836C35.5364 9.52432 35.2144 9.85196 34.9772 10.2813C34.7399 10.7106 34.6213 11.2077 34.6213 11.7726C34.6213 12.3375 34.7399 12.8347 34.9772 13.264C35.2144 13.6933 35.5364 14.0266 35.9431 14.2639C36.3499 14.4898 36.8075 14.6028 37.3159 14.6028ZM47.1375 16.4161C46.1998 16.4161 45.4654 16.1619 44.9344 15.6535C44.4147 15.1338 44.1548 14.4051 44.1548 13.4673V3.72275H46.2732V13.3148C46.2732 14.2187 46.6969 14.6706 47.5443 14.6706C47.8267 14.6706 48.0809 14.6141 48.3069 14.5011L48.4086 16.1958C48.0131 16.3427 47.5894 16.4161 47.1375 16.4161ZM53.7498 16.4161C52.8347 16.4161 52.0099 16.2184 51.2755 15.823C50.5412 15.4276 49.965 14.8796 49.5469 14.1791C49.1402 13.4673 48.9368 12.6652 48.9368 11.7726C48.9368 10.8801 49.1402 10.0836 49.5469 9.38309C49.965 8.68261 50.5412 8.13465 51.2755 7.73922C52.0099 7.34379 52.8347 7.14607 53.7498 7.14607C54.6763 7.14607 55.5067 7.34379 56.241 7.73922C56.9754 8.13465 57.546 8.68261 57.9527 9.38309C58.3707 10.0836 58.5797 10.8801 58.5797 11.7726C58.5797 12.6652 58.3707 13.4673 57.9527 14.1791C57.546 14.8796 56.9754 15.4276 56.241 15.823C55.5067 16.2184 54.6763 16.4161 53.7498 16.4161ZM53.7498 14.6028C54.5294 14.6028 55.1734 14.343 55.6818 13.8232C56.1902 13.3035 56.4444 12.62 56.4444 11.7726C56.4444 10.9253 56.1902 10.2417 55.6818 9.72203C55.1734 9.20232 54.5294 8.94247 53.7498 8.94247C52.9702 8.94247 52.3263 9.20232 51.8178 9.72203C51.3207 10.2417 51.0722 10.9253 51.0722 11.7726C51.0722 12.62 51.3207 13.3035 51.8178 13.8232C52.3263 14.343 52.9702 14.6028 53.7498 14.6028ZM64.6728 16.4161C63.7576 16.4161 62.9329 16.2184 62.1985 15.823C61.4641 15.4276 60.8879 14.8796 60.4699 14.1791C60.0631 13.4673 59.8598 12.6652 59.8598 11.7726C59.8598 10.8801 60.0631 10.0836 60.4699 9.38309C60.8879 8.68261 61.4641 8.13465 62.1985 7.73922C62.9329 7.34379 63.7576 7.14607 64.6728 7.14607C65.5992 7.14607 66.4296 7.34379 67.164 7.73922C67.8984 8.13465 68.4689 8.68261 68.8757 9.38309C69.2937 10.0836 69.5027 10.8801 69.5027 11.7726C69.5027 12.6652 69.2937 13.4673 68.8757 14.1791C68.4689 14.8796 67.8984 15.4276 67.164 15.823C66.4296 16.2184 65.5992 16.4161 64.6728 16.4161ZM64.6728 14.6028C65.4523 14.6028 66.0963 14.343 66.6047 13.8232C67.1132 13.3035 67.3674 12.62 67.3674 11.7726C67.3674 10.9253 67.1132 10.2417 66.6047 9.72203C66.0963 9.20232 65.4523 8.94247 64.6728 8.94247C63.8932 8.94247 63.2492 9.20232 62.7408 9.72203C62.2437 10.2417 61.9951 10.9253 61.9951 11.7726C61.9951 12.62 62.2437 13.3035 62.7408 13.8232C63.2492 14.343 63.8932 14.6028 64.6728 14.6028ZM82.9508 7.14607C84.0919 7.14607 84.9957 7.47936 85.6623 8.14595C86.3289 8.80124 86.6622 9.78982 86.6622 11.1117V16.2975H84.5438V11.3829C84.5438 10.592 84.3687 9.99884 84.0184 9.6034C83.6682 9.19667 83.1654 8.99331 82.5101 8.99331C81.7984 8.99331 81.2278 9.23057 80.7985 9.70509C80.3692 10.1683 80.1545 10.8349 80.1545 11.7048V16.2975H78.0361V11.3829C78.0361 10.592 77.861 9.99884 77.5107 9.6034C77.1605 9.19667 76.6577 8.99331 76.0025 8.99331C75.2794 8.99331 74.7032 9.22492 74.2738 9.68814C73.8558 10.1514 73.6468 10.8236 73.6468 11.7048V16.2975H71.5284V7.24775H73.5451V8.40016C73.8841 7.99343 74.3077 7.68273 74.8162 7.46807C75.3246 7.2534 75.8895 7.14607 76.5109 7.14607C77.1888 7.14607 77.7875 7.276 78.3073 7.53585C78.8383 7.78441 79.2563 8.15725 79.5613 8.65436C79.9342 8.17984 80.4144 7.81266 81.0019 7.5528C81.5894 7.28165 82.239 7.14607 82.9508 7.14607ZM94.4534 15.8061C94.2048 16.0094 93.8998 16.1619 93.5382 16.2636C93.188 16.3653 92.8151 16.4161 92.4197 16.4161C91.4255 16.4161 90.6572 16.1563 90.1149 15.6366C89.5726 15.1169 89.3014 14.3599 89.3014 13.3657V5.24799H91.4198V7.31554H93.8433V9.01025H91.4198V13.3148C91.4198 13.7555 91.5272 14.0944 91.7418 14.3317C91.9678 14.5576 92.2785 14.6706 92.6739 14.6706C93.1484 14.6706 93.5439 14.5463 93.8602 14.2978L94.4534 15.8061ZM96.2044 7.24775H98.3227V16.2975H96.2044V7.24775ZM97.272 5.75641C96.8879 5.75641 96.5659 5.63778 96.306 5.40052C96.0462 5.15196 95.9163 4.84691 95.9163 4.48537C95.9163 4.12383 96.0462 3.82443 96.306 3.58717C96.5659 3.33862 96.8879 3.21434 97.272 3.21434C97.6562 3.21434 97.9782 3.33297 98.238 3.57023C98.4979 3.79619 98.6278 4.08429 98.6278 4.43453C98.6278 4.80737 98.4979 5.12371 98.238 5.38357C97.9895 5.63213 97.6675 5.75641 97.272 5.75641ZM109.966 3.72275V16.2975H107.933V15.1282C107.583 15.5575 107.148 15.8795 106.628 16.0942C106.119 16.3088 105.555 16.4161 104.933 16.4161C104.063 16.4161 103.278 16.2241 102.578 15.8399C101.888 15.4558 101.346 14.9135 100.951 14.213C100.555 13.5012 100.357 12.6878 100.357 11.7726C100.357 10.8575 100.555 10.0497 100.951 9.3492C101.346 8.64872 101.888 8.10641 102.578 7.72227C103.278 7.33814 104.063 7.14607 104.933 7.14607C105.532 7.14607 106.08 7.24775 106.577 7.45112C107.074 7.65448 107.498 7.95953 107.848 8.36626V3.72275H109.966ZM105.187 14.6028C105.696 14.6028 106.153 14.4898 106.56 14.2639C106.967 14.0266 107.289 13.6933 107.526 13.264C107.763 12.8347 107.882 12.3375 107.882 11.7726C107.882 11.2077 107.763 10.7106 107.526 10.2813C107.289 9.85196 106.967 9.52432 106.56 9.29836C106.153 9.0611 105.696 8.94247 105.187 8.94247C104.679 8.94247 104.221 9.0611 103.815 9.29836C103.408 9.52432 103.086 9.85196 102.849 10.2813C102.611 10.7106 102.493 11.2077 102.493 11.7726C102.493 12.3375 102.611 12.8347 102.849 13.264C103.086 13.6933 103.408 14.0266 103.815 14.2639C104.221 14.4898 104.679 14.6028 105.187 14.6028ZM117.042 14.6198C118.025 14.6198 118.844 14.2921 119.5 13.6368L120.618 14.9417C120.223 15.4276 119.714 15.7948 119.093 16.0433C118.472 16.2919 117.771 16.4161 116.991 16.4161C115.997 16.4161 115.122 16.2184 114.365 15.823C113.608 15.4276 113.02 14.8796 112.602 14.1791C112.195 13.4673 111.992 12.6652 111.992 11.7726C111.992 10.8914 112.19 10.1005 112.585 9.40004C112.992 8.68826 113.546 8.13465 114.246 7.73922C114.958 7.34379 115.76 7.14607 116.653 7.14607C117.5 7.14607 118.268 7.33249 118.957 7.70533C119.658 8.06686 120.211 8.59222 120.618 9.28141C121.025 9.95929 121.228 10.7558 121.228 11.671L114.297 13.0267C114.512 13.5464 114.856 13.9419 115.331 14.213C115.805 14.4842 116.376 14.6198 117.042 14.6198ZM116.653 8.84078C115.873 8.84078 115.24 9.09499 114.754 9.6034C114.28 10.1118 114.043 10.7954 114.043 11.654V11.671L119.161 10.688C119.014 10.1344 118.714 9.68814 118.262 9.3492C117.822 9.01025 117.285 8.84078 116.653 8.84078Z" fill="url(#paint3_linear_85_8163)"/>
<path d="M35.675 25.7371C35.3153 25.7371 34.9925 25.6587 34.7066 25.5019C34.4252 25.3451 34.2039 25.126 34.0425 24.8447C33.8811 24.5588 33.8004 24.2383 33.8004 23.8832C33.8004 23.5281 33.8811 23.2099 34.0425 22.9286C34.2039 22.6473 34.4252 22.4282 34.7066 22.2714C34.9925 22.1146 35.3153 22.0362 35.675 22.0362C35.9886 22.0362 36.2676 22.0985 36.512 22.223C36.761 22.3429 36.957 22.5205 37.1 22.7556L36.7334 23.0047C36.6135 22.8248 36.4613 22.6911 36.2768 22.6035C36.0924 22.5112 35.8917 22.4651 35.675 22.4651C35.4121 22.4651 35.1746 22.5251 34.9625 22.645C34.755 22.7603 34.5913 22.9263 34.4714 23.143C34.3561 23.3598 34.2984 23.6065 34.2984 23.8832C34.2984 24.1645 34.3561 24.4135 34.4714 24.6303C34.5913 24.8424 34.755 25.0084 34.9625 25.1283C35.1746 25.2436 35.4121 25.3013 35.675 25.3013C35.8917 25.3013 36.0924 25.2575 36.2768 25.1698C36.4613 25.0822 36.6135 24.9485 36.7334 24.7686L37.1 25.0177C36.957 25.2528 36.761 25.4327 36.512 25.5572C36.263 25.6771 35.984 25.7371 35.675 25.7371ZM45.1636 25.7371C44.8131 25.7371 44.4972 25.6587 44.2159 25.5019C43.9346 25.3405 43.7132 25.1191 43.5518 24.8378C43.3904 24.5565 43.3097 24.2383 43.3097 23.8832C43.3097 23.5281 43.3904 23.2099 43.5518 22.9286C43.7132 22.6473 43.9346 22.4282 44.2159 22.2714C44.4972 22.1146 44.8131 22.0362 45.1636 22.0362C45.5141 22.0362 45.83 22.1146 46.1113 22.2714C46.3926 22.4282 46.6117 22.6473 46.7685 22.9286C46.9299 23.2099 47.0106 23.5281 47.0106 23.8832C47.0106 24.2383 46.9299 24.5565 46.7685 24.8378C46.6117 25.1191 46.3926 25.3405 46.1113 25.5019C45.83 25.6587 45.5141 25.7371 45.1636 25.7371ZM45.1636 25.3013C45.4219 25.3013 45.6524 25.2436 45.8553 25.1283C46.0629 25.0084 46.2243 24.8401 46.3396 24.6234C46.4549 24.4066 46.5125 24.1599 46.5125 23.8832C46.5125 23.6065 46.4549 23.3598 46.3396 23.143C46.2243 22.9263 46.0629 22.7603 45.8553 22.645C45.6524 22.5251 45.4219 22.4651 45.1636 22.4651C44.9053 22.4651 44.6725 22.5251 44.4649 22.645C44.262 22.7603 44.1006 22.9263 43.9807 23.143C43.8654 23.3598 43.8078 23.6065 43.8078 23.8832C43.8078 24.1599 43.8654 24.4066 43.9807 24.6234C44.1006 24.8401 44.262 25.0084 44.4649 25.1283C44.6725 25.2436 44.9053 25.3013 45.1636 25.3013ZM55.5395 22.0362C55.996 22.0362 56.358 22.17 56.6255 22.4374C56.8976 22.7003 57.0336 23.0854 57.0336 23.5927V25.7025H56.5425V23.6411C56.5425 23.2629 56.448 22.9747 56.2589 22.7764C56.0698 22.5781 55.8 22.4789 55.4495 22.4789C55.0576 22.4789 54.7463 22.5965 54.5157 22.8317C54.2897 23.0623 54.1767 23.3828 54.1767 23.7933V25.7025H53.6856V22.0639H54.156V22.7349C54.2897 22.5135 54.4742 22.3429 54.7094 22.223C54.9492 22.0985 55.2259 22.0362 55.5395 22.0362ZM65.0147 25.7371C64.7196 25.7371 64.436 25.6956 64.1639 25.6126C63.8964 25.5249 63.6866 25.4166 63.5344 25.2874L63.7557 24.9001C63.9079 25.02 64.0993 25.1191 64.3299 25.1975C64.5605 25.2713 64.8003 25.3082 65.0493 25.3082C65.3813 25.3082 65.6258 25.2575 65.7826 25.156C65.944 25.0499 66.0247 24.9024 66.0247 24.7133C66.0247 24.5795 65.9809 24.4758 65.8932 24.402C65.8056 24.3236 65.6949 24.266 65.5612 24.2291C65.4275 24.1876 65.2499 24.1484 65.0286 24.1115C64.7334 24.0561 64.4959 24.0008 64.3161 23.9454C64.1362 23.8855 63.9817 23.7863 63.8526 23.648C63.7281 23.5096 63.6658 23.3183 63.6658 23.0738C63.6658 22.7695 63.7926 22.5205 64.0463 22.3268C64.2999 22.1331 64.6527 22.0362 65.1046 22.0362C65.3398 22.0362 65.575 22.0685 65.8102 22.1331C66.0454 22.193 66.2391 22.2737 66.3913 22.3752L66.1769 22.7695C65.8771 22.562 65.5197 22.4582 65.1046 22.4582C64.7911 22.4582 64.5536 22.5135 64.3921 22.6242C64.2354 22.7349 64.157 22.8802 64.157 23.06C64.157 23.1984 64.2008 23.309 64.2884 23.3921C64.3806 23.4751 64.4936 23.5373 64.6273 23.5788C64.7611 23.6157 64.9455 23.6549 65.1807 23.6964C65.4713 23.7518 65.7042 23.8071 65.8794 23.8624C66.0546 23.9178 66.2045 24.0123 66.329 24.1461C66.4535 24.2798 66.5158 24.4643 66.5158 24.6995C66.5158 25.0177 66.3821 25.2713 66.1146 25.4604C65.8517 25.6448 65.4851 25.7371 65.0147 25.7371ZM76.375 22.0639V25.7025H75.9046V25.0384C75.7755 25.2598 75.5979 25.4327 75.3719 25.5572C75.146 25.6771 74.8877 25.7371 74.5972 25.7371C74.1222 25.7371 73.7463 25.6056 73.4696 25.3428C73.1976 25.0753 73.0615 24.6856 73.0615 24.1737V22.0639H73.5527V24.1253C73.5527 24.5081 73.6472 24.7986 73.8363 24.9969C74.0253 25.1952 74.2951 25.2944 74.6456 25.2944C75.0284 25.2944 75.3304 25.1791 75.5518 24.9485C75.7732 24.7133 75.8838 24.3882 75.8838 23.9731V22.0639H76.375ZM84.4466 25.7371C84.1192 25.7371 83.8656 25.6448 83.6857 25.4604C83.5105 25.2759 83.4228 25.02 83.4228 24.6925V20.5697H83.914V24.651C83.914 24.8678 83.9647 25.0338 84.0662 25.1491C84.1676 25.2598 84.3198 25.3151 84.5227 25.3151C84.6518 25.3151 84.7625 25.2944 84.8548 25.2528L84.8893 25.661C84.7464 25.7117 84.5988 25.7371 84.4466 25.7371ZM93.0215 25.4811C92.9292 25.5641 92.8163 25.6287 92.6825 25.6748C92.5488 25.7163 92.4081 25.7371 92.2605 25.7371C91.9193 25.7371 91.6564 25.6448 91.472 25.4604C91.2875 25.2759 91.1953 25.0153 91.1953 24.6787V21.2684H91.6864V22.0639H92.7863V22.4789H91.6864V24.651C91.6864 24.8678 91.7394 25.0338 91.8455 25.1491C91.9516 25.2598 92.1061 25.3151 92.309 25.3151C92.5303 25.3151 92.7102 25.2528 92.8485 25.1283L93.0215 25.4811ZM99.584 22.0639H100.075V25.7025H99.584V22.0639ZM99.8331 21.2684C99.7316 21.2684 99.6463 21.2338 99.5771 21.1646C99.5079 21.0955 99.4733 21.0124 99.4733 20.9156C99.4733 20.8234 99.5079 20.7427 99.5771 20.6735C99.6463 20.6043 99.7316 20.5697 99.8331 20.5697C99.9345 20.5697 100.02 20.6043 100.089 20.6735C100.158 20.7381 100.193 20.8164 100.193 20.9087C100.193 21.0101 100.158 21.0955 100.089 21.1646C100.02 21.2338 99.9345 21.2684 99.8331 21.2684ZM108.968 22.0362C109.425 22.0362 109.787 22.17 110.054 22.4374C110.326 22.7003 110.462 23.0854 110.462 23.5927V25.7025H109.971V23.6411C109.971 23.2629 109.876 22.9747 109.687 22.7764C109.498 22.5781 109.229 22.4789 108.878 22.4789C108.486 22.4789 108.175 22.5965 107.944 22.8317C107.718 23.0623 107.605 23.3828 107.605 23.7933V25.7025H107.114V22.0639H107.584V22.7349C107.718 22.5135 107.903 22.3429 108.138 22.223C108.378 22.0985 108.654 22.0362 108.968 22.0362ZM120.85 22.0639V25.2598C120.85 25.8777 120.698 26.3343 120.394 26.6294C120.094 26.9292 119.64 27.0791 119.031 27.0791C118.694 27.0791 118.374 27.0283 118.069 26.9269C117.77 26.83 117.525 26.694 117.336 26.5187L117.585 26.1452C117.76 26.302 117.972 26.4242 118.222 26.5118C118.475 26.5994 118.74 26.6433 119.017 26.6433C119.478 26.6433 119.817 26.5349 120.034 26.3181C120.251 26.106 120.359 25.774 120.359 25.322V24.8586C120.207 25.0891 120.006 25.2644 119.757 25.3843C119.513 25.5042 119.241 25.5641 118.941 25.5641C118.6 25.5641 118.288 25.4903 118.007 25.3428C117.73 25.1906 117.511 24.9808 117.35 24.7133C117.193 24.4412 117.115 24.1345 117.115 23.7933C117.115 23.452 117.193 23.1476 117.35 22.8802C117.511 22.6127 117.73 22.4052 118.007 22.2576C118.284 22.11 118.595 22.0362 118.941 22.0362C119.25 22.0362 119.529 22.0985 119.778 22.223C120.027 22.3475 120.228 22.5274 120.38 22.7626V22.0639H120.85ZM118.989 25.1283C119.252 25.1283 119.49 25.073 119.702 24.9623C119.914 24.847 120.078 24.6879 120.193 24.485C120.313 24.2821 120.373 24.0515 120.373 23.7933C120.373 23.535 120.313 23.3067 120.193 23.1084C120.078 22.9055 119.914 22.7487 119.702 22.638C119.494 22.5228 119.257 22.4651 118.989 22.4651C118.726 22.4651 118.489 22.5205 118.277 22.6311C118.069 22.7418 117.906 22.8986 117.786 23.1015C117.67 23.3044 117.613 23.535 117.613 23.7933C117.613 24.0515 117.67 24.2821 117.786 24.485C117.906 24.6879 118.069 24.847 118.277 24.9623C118.489 25.073 118.726 25.1283 118.989 25.1283Z" fill="url(#paint4_linear_85_8163)"/>
<defs>
<linearGradient id="paint0_linear_85_8163" x1="1.7761" y1="8.08461" x2="1.85079" y2="11.4358" gradientUnits="userSpaceOnUse">
<stop stop-color="#3C9CE8"/>
<stop offset="0.2926" stop-color="#27AAE1"/>
<stop offset="0.9879" stop-color="#08BFF7"/>
</linearGradient>
<linearGradient id="paint1_linear_85_8163" x1="1.7761" y1="8.08461" x2="1.85079" y2="11.4358" gradientUnits="userSpaceOnUse">
<stop stop-color="#3C9CE8"/>
<stop offset="0.2926" stop-color="#27AAE1"/>
<stop offset="0.9879" stop-color="#08BFF7"/>
</linearGradient>
<linearGradient id="paint2_linear_85_8163" x1="1.7761" y1="8.08461" x2="1.85079" y2="11.4358" gradientUnits="userSpaceOnUse">
<stop stop-color="#3C9CE8"/>
<stop offset="0.2926" stop-color="#27AAE1"/>
<stop offset="0.9879" stop-color="#08BFF7"/>
</linearGradient>
<linearGradient id="paint3_linear_85_8163" x1="74.8524" y1="5.78731" x2="74.8845" y2="16.7011" gradientUnits="userSpaceOnUse">
<stop stop-color="#3C9CE8"/>
<stop offset="0.2926" stop-color="#27AAE1"/>
<stop offset="0.9879" stop-color="#08BFF7"/>
</linearGradient>
<linearGradient id="paint4_linear_85_8163" x1="75.8888" y1="21.3232" x2="75.8945" y2="25.8707" gradientUnits="userSpaceOnUse">
<stop stop-color="#3C9CE8"/>
<stop offset="0.2926" stop-color="#27AAE1"/>
<stop offset="0.9879" stop-color="#08BFF7"/>
</linearGradient>
</defs>
</svg>
