<svg width="17" height="16" viewBox="0 0 17 16" fill="none" xmlns="http://www.w3.org/2000/svg">
<g id="SVG">
<g id="Clip path group">
<mask id="mask0_85_8210" style="mask-type:luminance" maskUnits="userSpaceOnUse" x="0" y="0" width="17" height="16">
<g id="clip0_1399_13914">
<path id="Vector" d="M16.9706 0.470581H0.970581V15.5294H16.9706V0.470581Z" fill="white"/>
</g>
</mask>
<g mask="url(#mask0_85_8210)">
<g id="Group">
<path id="Vector_2" d="M8.49999 15.5294C12.6584 15.5294 16.0294 12.1584 16.0294 7.99999C16.0294 3.84161 12.6584 0.470581 8.49999 0.470581C4.34161 0.470581 0.970581 3.84161 0.970581 7.99999C0.970581 12.1584 4.34161 15.5294 8.49999 15.5294Z" fill="#D3DBE5"/>
<path id="Vector_3" d="M11.7587 6.23812H10.4727C10.5073 6.03633 10.6323 5.92339 10.8853 5.79539L11.1217 5.67492C11.5449 5.45807 11.7708 5.21261 11.7708 4.81205C11.7708 4.56057 11.6729 4.36179 11.4786 4.21873C11.2844 4.07567 11.0555 4.0049 10.7874 4.0049C10.5801 4.00245 10.3765 4.06054 10.2016 4.17205C10.0254 4.28047 9.89443 4.42052 9.81311 4.5952L10.1851 4.96866C10.3296 4.67652 10.5389 4.53346 10.8145 4.53346C11.0479 4.53346 11.191 4.65393 11.191 4.82108C11.191 4.96113 11.1217 5.07708 10.8537 5.21261L10.7016 5.2864C10.3718 5.45355 10.1429 5.6448 10.0104 5.86165C9.87786 6.0785 9.81311 6.35106 9.81311 6.68085V6.7712H11.7587V6.23812Z" fill="#001433"/>
<path id="Vector_4" d="M11.587 7.38556H9.45773L8.39307 9.22876H10.5224L11.587 11.0735L12.6517 9.22876L11.587 7.38556Z" fill="#001433"/>
<path id="Vector_5" d="M8.57678 10.459C7.22149 10.459 6.11768 9.3552 6.11768 7.99991C6.11768 6.64461 7.22149 5.5408 8.57678 5.5408L9.41857 3.78042C9.14136 3.7253 8.85941 3.69756 8.57678 3.6976C6.2005 3.6976 4.27448 5.62362 4.27448 7.99991C4.27448 10.3762 6.2005 12.3022 8.57678 12.3022C9.48742 12.3039 10.3748 12.0148 11.1097 11.477L10.1791 9.86268C9.73381 10.2472 9.16512 10.4589 8.57678 10.459Z" fill="#001433"/>
</g>
</g>
</g>
</g>
</svg>
