<svg width="117" height="24" viewBox="0 0 117 24" fill="none" xmlns="http://www.w3.org/2000/svg">
<g id="SVG">
<path id="Vector" d="M11.8644 1.87806C12.1145 1.33564 12.8855 1.33565 13.1356 1.87806L15.5805 7.17841C15.6824 7.39948 15.8919 7.55169 16.1337 7.58035L21.9301 8.26761C22.5233 8.33794 22.7615 9.07111 22.323 9.47667L18.0375 13.4397C17.8588 13.605 17.7787 13.8513 17.8262 14.0901L18.9638 19.8152C19.0802 20.4011 18.4565 20.8542 17.9353 20.5624L12.8419 17.7114C12.6295 17.5925 12.3705 17.5925 12.1581 17.7114L7.06474 20.5624C6.54351 20.8542 5.91984 20.4011 6.03625 19.8152L7.17383 14.0901C7.22127 13.8513 7.14125 13.605 6.96251 13.4397L2.67706 9.47667C2.23851 9.07111 2.47674 8.33794 3.06991 8.26761L8.86634 7.58035C9.1081 7.55169 9.31759 7.39948 9.41956 7.17841L11.8644 1.87806Z" fill="#FFC107"/>
<path id="Vector_2" d="M34.8644 1.87806C35.1145 1.33564 35.8855 1.33565 36.1356 1.87806L38.5805 7.17841C38.6824 7.39948 38.8919 7.55169 39.1337 7.58035L44.9301 8.26761C45.5233 8.33794 45.7615 9.07111 45.323 9.47667L41.0375 13.4397C40.8588 13.605 40.7787 13.8513 40.8262 14.0901L41.9638 19.8152C42.0802 20.4011 41.4565 20.8542 40.9353 20.5624L35.8419 17.7114C35.6295 17.5925 35.3705 17.5925 35.1581 17.7114L30.0647 20.5624C29.5435 20.8542 28.9198 20.4011 29.0362 19.8152L30.1738 14.0901C30.2213 13.8513 30.1412 13.605 29.9625 13.4397L25.677 9.47667C25.2385 9.07111 25.4767 8.33794 26.0699 8.26761L31.8663 7.58035C32.1081 7.55169 32.3176 7.39948 32.4195 7.17841L34.8644 1.87806Z" fill="#FFC107"/>
<path id="Vector_3" d="M57.8644 1.87806C58.1145 1.33564 58.8855 1.33565 59.1356 1.87806L61.5805 7.17841C61.6824 7.39948 61.8919 7.55169 62.1337 7.58035L67.9301 8.26761C68.5233 8.33794 68.7615 9.07111 68.323 9.47667L64.0375 13.4397C63.8588 13.605 63.7787 13.8513 63.8262 14.0901L64.9638 19.8152C65.0802 20.4011 64.4565 20.8542 63.9353 20.5624L58.8419 17.7114C58.6295 17.5925 58.3705 17.5925 58.1581 17.7114L53.0647 20.5624C52.5435 20.8542 51.9198 20.4011 52.0362 19.8152L53.1738 14.0901C53.2213 13.8513 53.1412 13.605 52.9625 13.4397L48.677 9.47667C48.2385 9.07111 48.4767 8.33794 49.0699 8.26761L54.8663 7.58035C55.1081 7.55169 55.3176 7.39948 55.4195 7.17841L57.8644 1.87806Z" fill="#FFC107"/>
<path id="Vector_4" d="M80.8644 1.87806C81.1145 1.33564 81.8855 1.33565 82.1356 1.87806L84.5805 7.17841C84.6824 7.39948 84.8919 7.55169 85.1337 7.58035L90.9301 8.26761C91.5233 8.33794 91.7615 9.07111 91.323 9.47667L87.0375 13.4397C86.8588 13.605 86.7787 13.8513 86.8262 14.0901L87.9638 19.8152C88.0802 20.4011 87.4565 20.8542 86.9353 20.5624L81.8419 17.7114C81.6295 17.5925 81.3705 17.5925 81.1581 17.7114L76.0647 20.5624C75.5435 20.8542 74.9198 20.4011 75.0362 19.8152L76.1738 14.0901C76.2213 13.8513 76.1412 13.605 75.9625 13.4397L71.677 9.47667C71.2385 9.07111 71.4767 8.33794 72.0699 8.26761L77.8663 7.58035C78.1081 7.55169 78.3176 7.39948 78.4195 7.17841L80.8644 1.87806Z" fill="#FFC107"/>
<path id="Vector_5" d="M103.864 1.87806C104.115 1.33564 104.885 1.33565 105.136 1.87806L107.58 7.17841C107.682 7.39948 107.892 7.55169 108.134 7.58035L113.93 8.26761C114.523 8.33794 114.762 9.07111 114.323 9.47667L110.038 13.4397C109.859 13.605 109.779 13.8513 109.826 14.0901L110.964 19.8152C111.08 20.4011 110.457 20.8542 109.935 20.5624L104.842 17.7114C104.629 17.5925 104.371 17.5925 104.158 17.7114L99.0647 20.5624C98.5435 20.8542 97.9198 20.4011 98.0362 19.8152L99.1738 14.0901C99.2213 13.8513 99.1412 13.605 98.9625 13.4397L94.677 9.47667C94.2385 9.07111 94.4767 8.33794 95.0699 8.26761L100.866 7.58035C101.108 7.55169 101.318 7.39948 101.42 7.17841L103.864 1.87806Z" fill="#FEEBB4"/>
<g id="Clip path group">
<mask id="mask0_85_8197" style="mask-type:luminance" maskUnits="userSpaceOnUse" x="94" y="0" width="11" height="23">
<g id="clip0_840_94637">
<path id="Vector_6" d="M104.495 0H94.4453V23H104.495V0Z" fill="white"/>
</g>
</mask>
<g mask="url(#mask0_85_8197)">
<g id="Group">
<path id="Vector_7" d="M103.864 1.87806C104.115 1.33564 104.885 1.33565 105.136 1.87806L107.58 7.17841C107.682 7.39948 107.892 7.55169 108.134 7.58035L113.93 8.26761C114.523 8.33794 114.762 9.07111 114.323 9.47667L110.038 13.4397C109.859 13.605 109.779 13.8513 109.826 14.0901L110.964 19.8152C111.08 20.4011 110.457 20.8542 109.935 20.5624L104.842 17.7114C104.629 17.5925 104.371 17.5925 104.158 17.7114L99.0647 20.5624C98.5435 20.8542 97.9198 20.4011 98.0362 19.8152L99.1738 14.0901C99.2213 13.8513 99.1412 13.605 98.9625 13.4397L94.677 9.47667C94.2385 9.07111 94.4767 8.33794 95.0699 8.26761L100.866 7.58035C101.108 7.55169 101.318 7.39948 101.42 7.17841L103.864 1.87806Z" fill="#FFC107"/>
</g>
</g>
</g>
</g>
</svg>
