<svg width="20" height="20" viewBox="0 0 20 20" fill="none" xmlns="http://www.w3.org/2000/svg">
<g id="SVG">
<path id="Vector" fill-rule="evenodd" clip-rule="evenodd" d="M16.0999 8.67367V16.1737H4.41654V4.507H11.9165V2.84033H4.43321C3.51654 2.84033 2.76654 3.59033 2.76654 4.507V16.1737C2.76654 17.0903 3.51654 17.8403 4.43321 17.8403H16.0999C17.0165 17.8403 17.7665 17.0903 17.7665 16.1737V8.67367H16.0999ZM14.4165 8.67367L15.1999 6.957L16.9165 6.17367L15.1999 5.39033L14.4165 3.67367L13.6332 5.39033L11.9165 6.17367L13.6332 6.957L14.4165 8.67367ZM11.2915 9.29866L10.2499 7.007L9.20821 9.29866L6.91654 10.3403L9.20821 11.382L10.2499 13.6737L11.2915 11.382L13.5832 10.3403L11.2915 9.29866Z" fill="#64ED80"/>
</g>
</svg>
