<svg width="61" height="60" viewBox="0 0 61 60" fill="none" xmlns="http://www.w3.org/2000/svg">
<g id="Spring-Light" clip-path="url(#clip0_240_96)">
<path id="Vector" d="M46.4375 0H14.5625C6.796 0 0.5 6.296 0.5 14.0625V45.9375C0.5 53.704 6.796 60 14.5625 60H46.4375C54.204 60 60.5 53.704 60.5 45.9375V14.0625C60.5 6.296 54.204 0 46.4375 0Z" fill="#F4F2ED"/>
<path id="Vector_2" d="M49.6121 40.2706C43.843 47.9574 31.5188 45.3626 23.6176 45.7357C23.6176 45.7357 22.2189 45.8135 20.8101 46.0456C20.8101 46.0456 21.3428 45.8182 22.0222 45.5841C27.5717 43.665 30.1941 43.2795 33.5661 41.5474C39.9017 38.3018 46.2073 31.2326 47.4903 23.8887C45.0786 30.9518 37.7443 37.0308 31.066 39.4992C26.4948 41.186 18.2286 42.8276 18.2274 42.8283C18.2312 42.8342 17.8979 42.6553 17.8933 42.6514C12.2716 39.9162 12.1093 27.7404 22.3195 23.8156C26.7962 22.0936 31.078 23.0394 35.9173 21.8876C41.0788 20.6604 47.0567 16.7916 49.4865 11.7335C52.2104 19.8129 55.4825 32.4532 49.6121 40.2706ZM49.7124 9.22992C49.0257 10.8617 48.1873 12.3321 47.2212 13.6472C42.968 9.28216 37.0316 6.5625 30.4698 6.5625C17.5622 6.5625 7.0625 17.0634 7.0625 29.9686C7.0625 36.7339 9.95021 42.8353 14.5542 47.1122L15.0667 47.5662C14.2108 46.8682 14.0791 45.6113 14.7729 44.7544C15.4709 43.8973 16.7292 43.7644 17.5855 44.4586C18.4442 45.1542 18.575 46.4145 17.8798 47.2728C17.1871 48.1315 15.9266 48.2611 15.0691 47.5683L15.4179 47.8772C19.4903 51.3061 24.74 53.3773 30.4698 53.3773C42.8073 53.3773 52.9381 43.7761 53.8053 31.6578C54.4475 25.7243 52.6951 18.19 49.7124 9.22992Z" fill="#5FB832"/>
</g>
<defs>
<clipPath id="clip0_240_96">
<rect width="60" height="60" fill="white" transform="translate(0.5)"/>
</clipPath>
</defs>
</svg>
