<svg width="61" height="60" viewBox="0 0 61 60" fill="none" xmlns="http://www.w3.org/2000/svg">
<g id="StackOverflow-Light" clip-path="url(#clip0_240_112)">
<path id="Vector" d="M46.4375 0H14.5625C6.796 0 0.5 6.296 0.5 14.0625V45.9375C0.5 53.704 6.796 60 14.5625 60H46.4375C54.204 60 60.5 53.704 60.5 45.9375V14.0625C60.5 6.296 54.204 0 46.4375 0Z" fill="#F4F2ED"/>
<path id="Vector_2" d="M43.5174 48.3699V36.968H48.5848V53.4375H10.5781V36.968H15.6457V48.3699H43.5174Z" fill="#BCBBBB"/>
<path id="Vector_3" d="M37.8163 6.5625L34.3958 9.09628L46.9379 25.946L50.3586 23.4122L37.8163 6.5625ZM43.5175 29.8732L27.4278 16.4443L30.0882 13.277L46.1778 26.7061L43.5175 29.8732ZM22.1069 25.8192L41.1102 34.6875L42.8839 30.8869L23.8805 22.0186L22.1069 25.8192ZM39.8434 39.4889L40.705 35.7518L20.3079 31.5075L19.4464 35.7009L39.8434 39.4889ZM39.7166 44.5692H19.4464V40.7686H39.7166V44.5692Z" fill="#F48024"/>
</g>
<defs>
<clipPath id="clip0_240_112">
<rect width="60" height="60" fill="white" transform="translate(0.5)"/>
</clipPath>
</defs>
</svg>
