<svg width="61" height="60" viewBox="0 0 61 60" fill="none" xmlns="http://www.w3.org/2000/svg">
<g id="TailwindCSS-Light" clip-path="url(#clip0_240_123)">
<path id="Vector" d="M46.4375 0H14.5625C6.796 0 0.5 6.296 0.5 14.0625V45.9375C0.5 53.704 6.796 60 14.5625 60H46.4375C54.204 60 60.5 53.704 60.5 45.9375V14.0625C60.5 6.296 54.204 0 46.4375 0Z" fill="#F4F2ED"/>
<path id="Vector_2" fill-rule="evenodd" clip-rule="evenodd" d="M19.9531 25.7812C21.3592 20.1565 24.8752 17.3438 30.5 17.3438C38.9375 17.3438 39.9922 23.6719 44.2109 24.7266C47.0237 25.4299 49.4844 24.3752 51.5938 21.5625C50.1877 27.1873 46.6716 30 41.0469 30C32.6094 30 31.5547 23.6719 27.3359 22.6172C24.5232 21.9139 22.0625 22.9685 19.9531 25.7812ZM9.40625 38.4375C10.8123 32.8127 14.3283 30 19.9531 30C28.3906 30 29.4453 36.3281 33.6641 37.3828C36.4768 38.0862 38.9375 37.0315 41.0469 34.2188C39.6409 39.8435 36.1248 42.6562 30.5 42.6562C22.0625 42.6562 21.0078 36.3281 16.7891 35.2734C13.9764 34.5701 11.5156 35.6248 9.40625 38.4375Z" fill="url(#paint0_linear_240_123)"/>
</g>
<defs>
<linearGradient id="paint0_linear_240_123" x1="20.7734" y1="17.3437" x2="38.8203" y2="43.4766" gradientUnits="userSpaceOnUse">
<stop stop-color="#32B1C1"/>
<stop offset="1" stop-color="#14C6B7"/>
</linearGradient>
<clipPath id="clip0_240_123">
<rect width="60" height="60" fill="white" transform="translate(0.5)"/>
</clipPath>
</defs>
</svg>
