<svg width="61" height="60" viewBox="0 0 61 60" fill="none" xmlns="http://www.w3.org/2000/svg">
<g id="Sass" clip-path="url(#clip0_240_77)">
<path id="Vector" d="M46.4375 0H14.5625C6.796 0 0.5 6.296 0.5 14.0625V45.9375C0.5 53.704 6.796 60 14.5625 60H46.4375C54.204 60 60.5 53.704 60.5 45.9375V14.0625C60.5 6.296 54.204 0 46.4375 0Z" fill="#CD6799"/>
<g id="Clip path group">
<mask id="mask0_240_77" style="mask-type:luminance" maskUnits="userSpaceOnUse" x="7" y="12" width="47" height="36">
<g id="clip0_137_201">
<path id="Vector_2" d="M53.9375 12.4219H7.0625V47.5568H53.9375V12.4219Z" fill="white"/>
</g>
</mask>
<g mask="url(#mask0_240_77)">
<g id="Group">
<path id="Vector_3" d="M47.4001 32.6164C45.7655 32.6248 44.3452 33.0186 43.1558 33.6003C42.7194 32.7362 42.283 31.966 42.2059 31.4012C42.1203 30.7423 42.0177 30.3402 42.1203 29.5529C42.223 28.7656 42.6852 27.6448 42.6765 27.5593C42.668 27.4735 42.5738 27.0716 41.6326 27.0629C40.6913 27.0544 39.8785 27.2426 39.7843 27.4909C39.6901 27.7388 39.5105 28.3037 39.3908 28.8856C39.2281 29.7413 37.508 32.7962 36.5241 34.3962C36.2075 33.7716 35.9337 33.2239 35.8737 32.7875C35.7882 32.1287 35.6855 31.7265 35.7882 30.9392C35.8909 30.1519 36.353 29.0309 36.3444 28.9454C36.3359 28.8598 36.2417 28.4576 35.3005 28.4492C34.3592 28.4405 33.5462 28.6287 33.4522 28.8769C33.358 29.1251 33.2553 29.7071 33.0584 30.2717C32.8618 30.8366 30.5771 35.9366 29.978 37.2542C29.6701 37.9302 29.4048 38.4692 29.2166 38.8372C29.2166 38.8372 29.2079 38.863 29.1823 38.9056C29.0197 39.2223 28.9255 39.3934 28.9255 39.3934C28.9255 39.3934 28.9255 39.3934 28.9255 39.402C28.7973 39.6331 28.6602 39.8469 28.5917 39.8469C28.5404 39.8469 28.4464 39.2309 28.6088 38.3923C28.9512 36.6209 29.7641 33.8656 29.7556 33.7716C29.7556 33.7203 29.9096 33.241 29.225 32.9928C28.5575 32.7446 28.318 33.1555 28.258 33.1555C28.1982 33.1555 28.1553 33.301 28.1553 33.301C28.1553 33.301 28.8999 30.2033 26.735 30.2033C25.3829 30.2033 23.5175 31.6836 22.5934 33.0186C22.0115 33.3352 20.7707 34.0112 19.4444 34.7384C18.9396 35.0209 18.4176 35.3033 17.9298 35.5686C17.8956 35.5344 17.8614 35.4915 17.8272 35.4573C15.2087 32.6591 10.3655 30.6826 10.5709 26.926C10.6479 25.5568 11.1185 21.963 19.8723 17.5989C27.0772 14.0478 32.8105 15.0318 33.803 17.2138C35.2234 20.3286 30.7311 26.113 23.2865 26.9516C20.4456 27.2682 18.9567 26.173 18.5802 25.7623C18.1865 25.3344 18.1267 25.3088 17.9812 25.3944C17.7416 25.5226 17.8956 25.9076 17.9812 26.1301C18.2037 26.712 19.1193 27.7388 20.6681 28.2437C22.0372 28.6887 25.3658 28.9369 29.3961 27.3795C33.9057 25.6339 37.4312 20.7821 36.3957 16.7175C35.3605 12.5931 28.5148 11.2325 22.0372 13.5343C18.1865 14.9035 14.0108 17.0598 11.0073 19.8665C7.43902 23.2037 6.87425 26.1045 7.1053 27.3195C7.93531 31.6323 13.8824 34.4389 16.2612 36.5183C16.1414 36.5867 16.0302 36.6467 15.9361 36.698C14.7466 37.2884 10.2115 39.6587 9.08194 42.166C7.79841 45.0069 9.28733 47.0434 10.2714 47.3171C13.3262 48.1644 16.4666 46.6412 18.1523 44.1254C19.838 41.6096 19.6327 38.341 18.854 36.8436C18.8454 36.8265 18.8369 36.8094 18.8198 36.7923C19.1278 36.6125 19.4444 36.4243 19.7525 36.2445C20.36 35.8852 20.959 35.5515 21.4724 35.2775C21.1815 36.0734 20.9676 37.0231 20.8649 38.3923C20.7365 40.0011 21.3954 42.0889 22.2597 42.9104C22.6447 43.2697 23.0982 43.2784 23.3892 43.2784C24.399 43.2784 24.8525 42.4398 25.3573 41.4472C25.9733 40.2319 26.5297 38.8201 26.5297 38.8201C26.5297 38.8201 25.8364 42.6366 27.7189 42.6366C28.4035 42.6366 29.0966 41.7467 29.4048 41.2932C29.4048 41.3016 29.4048 41.3016 29.4048 41.3016C29.4048 41.3016 29.4219 41.2761 29.4561 41.2161C29.5245 41.1048 29.5672 41.0363 29.5672 41.0363C29.5672 41.0363 29.5672 41.0279 29.5672 41.0192C29.8412 40.5401 30.4571 39.4534 31.3728 37.6477C32.5536 35.3204 33.6917 32.4111 33.6917 32.4111C33.6917 32.4111 33.7944 33.1212 34.1452 34.302C34.3505 34.9953 34.7785 35.7568 35.1207 36.4927C34.847 36.8778 34.6759 37.0916 34.6759 37.0916C34.6759 37.0916 34.6759 37.0916 34.6843 37.1002C34.4619 37.3911 34.2223 37.7077 33.957 38.0157C33.0242 39.1283 31.9119 40.4033 31.7579 40.7712C31.5781 41.2077 31.621 41.5241 31.9632 41.7809C32.2114 41.9691 32.6562 41.9947 33.1098 41.9691C33.9484 41.9091 34.539 41.7038 34.8298 41.5754C35.2834 41.413 35.814 41.1648 36.3102 40.7968C37.2259 40.1209 37.782 39.1538 37.7307 37.8788C37.7049 37.1771 37.4738 36.4756 37.1916 35.8166C37.2772 35.6968 37.3541 35.577 37.4396 35.4573C38.8859 33.3437 40.0067 31.0248 40.0067 31.0248C40.0067 31.0248 40.1094 31.7349 40.4602 32.9159C40.6313 33.5148 40.9822 34.1652 41.2904 34.7984C39.9298 35.9023 39.0913 37.1858 38.7917 38.0244C38.2527 39.5818 38.672 40.2833 39.4677 40.4459C39.8272 40.523 40.3405 40.3519 40.7171 40.1893C41.1962 40.0353 41.761 39.77 42.3001 39.3762C43.2155 38.7003 44.097 37.7591 44.0457 36.4841C44.0199 35.9023 43.8659 35.3288 43.652 34.7727C44.8072 34.2936 46.2962 34.0283 48.1958 34.2507C52.269 34.73 53.0734 37.2713 52.9191 38.341C52.7652 39.4105 51.9095 39.9924 51.627 40.1722C51.3448 40.3519 51.2506 40.4117 51.2764 40.5401C51.3106 40.7284 51.4475 40.7197 51.687 40.6855C52.0208 40.6257 53.8262 39.8213 53.9033 37.8533C54.0317 35.3375 51.6357 32.5906 47.4001 32.6164ZM15.9789 43.2099C14.6269 44.6816 12.7443 45.238 11.9314 44.7673C11.0586 44.2623 11.4009 42.0889 13.0609 40.5315C14.0707 39.5818 15.3713 38.7003 16.2356 38.1612C16.4324 38.0415 16.7233 37.8704 17.0742 37.6564C17.134 37.6222 17.1683 37.6051 17.1683 37.6051C17.2367 37.5622 17.3052 37.5195 17.3736 37.4766C17.9812 39.7016 17.3993 41.6612 15.9789 43.2099ZM25.8193 36.5183C25.3487 37.6651 24.3648 40.5999 23.7657 40.4375C23.2523 40.3004 22.9357 38.0757 23.663 35.8766C24.031 34.7726 24.8096 33.455 25.2631 32.9415C25.9991 32.12 26.8119 31.8462 27.0087 32.18C27.257 32.6164 26.1104 35.7994 25.8193 36.5183ZM33.9399 40.4033C33.743 40.5059 33.5548 40.5744 33.4693 40.523C33.4093 40.4888 33.5548 40.3519 33.5548 40.3519C33.5548 40.3519 34.5732 39.2565 34.9754 38.7603C35.2062 38.4692 35.4802 38.127 35.7711 37.7419C35.7711 37.7762 35.7711 37.8191 35.7711 37.8533C35.7711 39.1625 34.5048 40.0437 33.9399 40.4033ZM40.2036 38.9741C40.058 38.8714 40.0838 38.5292 40.5716 37.4595C40.7598 37.0402 41.2048 36.3387 41.9663 35.6626C42.0519 35.9366 42.1119 36.2016 42.1032 36.4498C42.0948 38.1015 40.9137 38.7174 40.2036 38.9741Z" fill="white"/>
</g>
</g>
</g>
</g>
<defs>
<clipPath id="clip0_240_77">
<rect width="60" height="60" fill="white" transform="translate(0.5)"/>
</clipPath>
</defs>
</svg>
