<svg width="61" height="60" viewBox="0 0 61 60" fill="none" xmlns="http://www.w3.org/2000/svg">
<g id="VueJS-Dark" clip-path="url(#clip0_240_134)">
<path id="Vector" d="M46.4375 0H14.5625C6.796 0 0.5 6.296 0.5 14.0625V45.9375C0.5 53.704 6.796 60 14.5625 60H46.4375C54.204 60 60.5 53.704 60.5 45.9375V14.0625C60.5 6.296 54.204 0 46.4375 0Z" fill="#242938"/>
<path id="Vector_2" d="M43.1562 11.7188H51.5938L30.5 48.1055L9.40625 11.7188H17.7383H25.543L30.5 20.1562L35.3516 11.7188H43.1562Z" fill="#41B883"/>
<path id="Vector_3" d="M9.40625 11.7188L30.5 48.1055L51.5938 11.7188H43.1562L30.5 33.5508L17.7383 11.7188H9.40625Z" fill="#41B883"/>
<path id="Vector_4" d="M17.7383 11.7188L30.5 33.6563L43.1562 11.7188H35.3516L30.5 20.1562L25.543 11.7188H17.7383Z" fill="white"/>
</g>
<defs>
<clipPath id="clip0_240_134">
<rect width="60" height="60" fill="white" transform="translate(0.5)"/>
</clipPath>
</defs>
</svg>
