<svg width="61" height="60" viewBox="0 0 61 60" fill="none" xmlns="http://www.w3.org/2000/svg">
<g id="TypeScript" clip-path="url(#clip0_240_128)">
<path id="Vector" d="M46.4375 0H14.5625C6.796 0 0.5 6.296 0.5 14.0625V45.9375C0.5 53.704 6.796 60 14.5625 60H46.4375C54.204 60 60.5 53.704 60.5 45.9375V14.0625C60.5 6.296 54.204 0 46.4375 0Z" fill="#007ACC"/>
<path id="Vector_2" d="M13.7682 30.1991L13.7491 32.6563H17.6539H21.5587V43.7516V54.8467H24.3207H27.0825V43.7516V32.6563H30.9872H34.8919V30.2467C34.8919 28.9133 34.8635 27.7991 34.8253 27.7705C34.7967 27.7325 30.0443 27.7133 24.2825 27.7229L13.7968 27.7515L13.7682 30.1991Z" fill="white"/>
<path id="Vector_3" d="M48.9141 27.6815C50.4378 28.0626 51.5998 28.7388 52.6664 29.8434C53.2189 30.434 54.0378 31.5103 54.1046 31.7674C54.1236 31.8435 51.514 33.596 49.9332 34.5768C49.876 34.615 49.6472 34.3673 49.3901 33.9864C48.6188 32.8626 47.8093 32.3767 46.5711 32.2912C44.7521 32.1672 43.5807 33.1197 43.5903 34.7102C43.5903 35.1768 43.6568 35.4529 43.8474 35.834C44.2472 36.6625 44.9902 37.1578 47.3236 38.1672C51.6188 40.015 53.4568 41.234 54.5998 42.9672C55.876 44.9006 56.1617 47.9863 55.295 50.2816C54.3427 52.7767 51.9807 54.472 48.6568 55.034C47.6283 55.2149 45.1901 55.1863 44.0855 54.9864C41.6759 54.5578 39.3903 53.3674 37.9807 51.8055C37.4283 51.1959 36.3521 49.6054 36.4189 49.491C36.4472 49.4531 36.695 49.3007 36.9711 49.1388C37.2378 48.9864 38.2475 48.4054 39.1997 47.853L40.9236 46.8529L41.2854 47.3863C41.7903 48.1577 42.8949 49.2149 43.5617 49.5672C45.4758 50.5769 48.1046 50.4339 49.3997 49.2721C49.9521 48.7673 50.1807 48.2435 50.1807 47.4721C50.1807 46.7767 50.0949 46.4721 49.733 45.9482C49.2664 45.2817 48.3141 44.7196 45.6092 43.5482C42.514 42.2149 41.1807 41.3863 39.9617 40.072C39.2569 39.3103 38.5901 38.091 38.314 37.072C38.0855 36.2245 38.0283 34.1006 38.2093 33.2435C38.8472 30.2531 41.1045 28.1674 44.3616 27.5481C45.4189 27.3482 47.8758 27.4244 48.9141 27.6815Z" fill="white"/>
</g>
<defs>
<clipPath id="clip0_240_128">
<rect width="60" height="60" fill="white" transform="translate(0.5)"/>
</clipPath>
</defs>
</svg>
