<svg width="61" height="60" viewBox="0 0 61 60" fill="none" xmlns="http://www.w3.org/2000/svg">
<g id="Photoshop" clip-path="url(#clip0_240_141)">
<path id="Vector" d="M46.4375 0H14.5625C6.796 0 0.5 6.296 0.5 14.0625V45.9375C0.5 53.704 6.796 60 14.5625 60H46.4375C54.204 60 60.5 53.704 60.5 45.9375V14.0625C60.5 6.296 54.204 0 46.4375 0Z" fill="#001E36"/>
<path id="Vector_2" d="M14 41.7281V16.0031C14 15.8281 14.075 15.7281 14.25 15.7281C14.675 15.7281 15.075 15.7281 15.65 15.7031C16.25 15.6781 16.875 15.6781 17.55 15.6531C18.225 15.6281 18.95 15.6281 19.725 15.6031C20.5 15.5781 21.25 15.5781 22 15.5781C24.05 15.5781 25.7499 15.8281 27.1501 16.3531C28.4 16.7781 29.5501 17.4781 30.5 18.4031C31.2999 19.2031 31.925 20.1781 32.3251 21.2531C32.7001 22.3031 32.9 23.3781 32.9 24.5032C32.9 26.6531 32.4001 28.4281 31.4 29.8282C30.3999 31.2281 29 32.2781 27.3751 32.8781C25.6749 33.5032 23.8 33.7282 21.75 33.7282C21.15 33.7282 20.75 33.7282 20.5 33.7031C20.25 33.6781 19.9 33.6781 19.425 33.6781V41.7031C19.45 41.8781 19.325 42.0281 19.15 42.0532C19.125 42.0532 19.1 42.0532 19.05 42.0532H14.3C14.1 42.0532 14 41.9531 14 41.7281ZM19.45 20.5531V28.9531C19.8 28.9781 20.125 29.0032 20.425 29.0032H21.75C22.725 29.0032 23.7 28.8532 24.6249 28.5532C25.4251 28.3282 26.1249 27.8531 26.675 27.2281C27.2 26.6032 27.4501 25.7531 27.4501 24.6532C27.4749 23.8781 27.275 23.1031 26.8749 22.4281C26.45 21.7781 25.85 21.2781 25.1251 21.0031C24.2 20.6281 23.2 20.4781 22.175 20.5031C21.525 20.5031 20.95 20.5031 20.475 20.5281C19.975 20.5031 19.625 20.5281 19.45 20.5531Z" fill="#31A8FF"/>
<path id="Vector_3" d="M48.5 27.4282C47.75 27.0281 46.9501 26.7532 46.1 26.5781C45.1749 26.3782 44.2501 26.253 43.2999 26.253C42.8 26.2282 42.275 26.3032 41.7999 26.4281C41.4751 26.5031 41.1999 26.6782 41.0251 26.928C40.8999 27.1282 40.8249 27.378 40.8249 27.603C40.8249 27.828 40.925 28.053 41.075 28.2532C41.3 28.5281 41.6 28.7531 41.9251 28.9282C42.5 29.2282 43.1 29.5031 43.7 29.7532C45.05 30.2032 46.3501 30.828 47.5501 31.578C48.3751 32.103 49.0501 32.8031 49.5249 33.6532C49.925 34.4531 50.1249 35.328 50.1001 36.228C50.1249 37.4032 49.775 38.5781 49.1251 39.5531C48.425 40.5532 47.45 41.328 46.325 41.778C45.0999 42.303 43.5999 42.5782 41.7999 42.5782C40.6501 42.5782 39.5251 42.4781 38.4001 42.2531C37.5249 42.1031 36.65 41.8282 35.8501 41.4532C35.675 41.3531 35.5501 41.178 35.5749 40.9781V36.6281C35.5749 36.5531 35.6 36.453 35.675 36.4031C35.75 36.3532 35.825 36.378 35.9 36.4282C36.875 37.0031 37.8999 37.4032 39.0001 37.653C39.95 37.9031 40.9501 38.028 41.9499 38.028C42.9001 38.028 43.5751 37.9031 44.0251 37.6781C44.4249 37.503 44.7001 37.0781 44.7001 36.6281C44.7001 36.2782 44.4999 35.9531 44.1001 35.628C43.7 35.3032 42.875 34.9282 41.6499 34.4531C40.3749 34.0031 39.2 33.4031 38.1001 32.6531C37.325 32.103 36.6751 31.3781 36.2 30.528C35.7999 29.7281 35.6 28.8532 35.6251 27.978C35.6251 26.9032 35.9251 25.878 36.4749 24.9532C37.1 23.9531 38.0251 23.1531 39.0999 22.6531C40.2751 22.0531 41.75 21.7781 43.5249 21.7781C44.5501 21.7781 45.6001 21.8531 46.625 22.0031C47.375 22.1031 48.0999 22.3031 48.7749 22.5781C48.875 22.6031 48.9751 22.7031 49.025 22.8031C49.0501 22.9031 49.0749 23.0031 49.0749 23.1031V27.1781C49.0749 27.2782 49.025 27.378 48.95 27.4282C48.725 27.4781 48.6001 27.4781 48.5 27.4282Z" fill="#31A8FF"/>
</g>
<defs>
<clipPath id="clip0_240_141">
<rect width="60" height="60" fill="white" transform="translate(0.5)"/>
</clipPath>
</defs>
</svg>
