<svg width="61" height="60" viewBox="0 0 61 60" fill="none" xmlns="http://www.w3.org/2000/svg">
<g id="Swift" clip-path="url(#clip0_240_118)">
<path id="Vector" d="M46.4375 0H14.5625C6.796 0 0.5 6.296 0.5 14.0625V45.9375C0.5 53.704 6.796 60 14.5625 60H46.4375C54.204 60 60.5 53.704 60.5 45.9375V14.0625C60.5 6.296 54.204 0 46.4375 0Z" fill="#F05138"/>
<path id="Vector_2" d="M48.0024 37.0406C48.0589 36.8142 48.1154 36.588 48.1721 36.3618C50.6602 26.4656 44.6094 14.7031 34.3173 8.53906C38.8412 14.6465 40.8205 22.0546 39.0674 28.5013C38.8977 29.0669 38.728 29.6324 38.5018 30.198C38.2756 30.0283 37.993 29.8586 37.5971 29.6889C37.5971 29.6889 27.3615 23.3553 16.2776 12.2148C15.9948 11.9321 22.2154 21.0932 29.2276 28.5013C25.8913 26.6353 16.6734 19.9057 10.7922 14.59C11.5273 15.7775 12.3756 16.9651 13.2804 18.0395C18.1437 24.2601 24.534 31.8944 32.1683 37.7756C26.7959 41.0556 19.2182 41.3383 11.697 37.7756C9.83083 36.9274 8.07777 35.853 6.43781 34.6654C9.60463 39.7549 14.5245 44.1658 20.5188 46.7671C27.6441 49.8208 34.7696 49.6513 40.0288 46.8236C40.0288 46.8236 40.0852 46.8236 40.0852 46.7671C40.3114 46.6542 40.5378 46.4845 40.764 46.3713C43.3086 45.0707 48.2851 43.7699 50.9996 48.9726C51.7913 50.1602 53.2051 43.3741 48.0024 37.0406Z" fill="white"/>
</g>
<defs>
<clipPath id="clip0_240_118">
<rect width="60" height="60" fill="white" transform="translate(0.5)"/>
</clipPath>
</defs>
</svg>
