<svg width="61" height="60" viewBox="0 0 61 60" fill="none" xmlns="http://www.w3.org/2000/svg">
<g id="SQLite" clip-path="url(#clip0_240_101)">
<g id="Clip path group">
<mask id="mask0_240_101" style="mask-type:luminance" maskUnits="userSpaceOnUse" x="0" y="0" width="61" height="60">
<g id="clip0_307_145">
<path id="Vector" d="M46.4375 0H14.5625C6.796 0 0.5 6.296 0.5 14.0625V45.9375C0.5 53.704 6.796 60 14.5625 60H46.4375C54.204 60 60.5 53.704 60.5 45.9375V14.0625C60.5 6.296 54.204 0 46.4375 0Z" fill="white"/>
</g>
</mask>
<g mask="url(#mask0_240_101)">
<g id="Group">
<path id="Vector_2" d="M14.5625 0C6.79599 0 0.5 6.29599 0.5 14.0625V45.9375C0.5 53.704 6.79599 60 14.5625 60H39.9828C39.5659 58.7712 39.2394 56.8252 39.0556 54.604C38.8974 52.6934 38.8449 50.5795 38.9326 48.5407C38.9089 48.2393 38.8946 48.0434 38.8946 48.0434C38.8946 48.0434 38.4554 45.0879 37.8233 42.66C37.5434 41.5823 37.2249 40.6078 36.8905 40.043C36.7182 39.7516 36.9092 38.5545 37.3899 36.7814C37.6712 37.2668 38.8578 39.3436 39.0962 40.013C39.3645 40.7695 39.4208 40.9863 39.4208 40.9863C39.4208 40.9863 38.7699 37.6413 37.7021 35.6895C37.9363 34.9003 38.2159 34.0282 38.5323 33.0959C38.9021 33.7444 39.7428 35.2336 40.0466 35.9393C40.0747 36.0047 40.1 36.0661 40.1185 36.1167C40.1616 36.2391 40.198 36.3429 40.2305 36.438C40.4019 36.9345 40.4436 37.0924 40.4436 37.0924C40.4436 37.0924 40.3801 36.7676 40.262 36.2665C40.212 36.0548 40.1499 35.8059 40.0808 35.5409C39.8117 34.5075 39.403 33.1547 38.8796 32.0946C40.223 25.1116 44.547 15.9681 49.2055 11.0318C49.607 10.6067 50.0103 10.2088 50.4144 9.85019C53.1376 7.43611 55.8969 6.6207 58.1757 8.65066C59.8243 10.1197 60.4988 12.1487 60.5 14.4845V14.0625C60.5 6.29599 54.204 0 46.4375 0H14.5625Z" fill="#D9D9D9"/>
<path id="Vector_3" d="M14.5625 0C6.79599 0 0.5 6.29599 0.5 14.0625V45.9375C0.5 53.704 6.79599 60 14.5625 60H39.9828C39.5659 58.7712 39.2394 56.8252 39.0556 54.604C38.8974 52.6934 38.8449 50.5795 38.9326 48.5407C38.9089 48.2393 38.8946 48.0434 38.8946 48.0434C38.8946 48.0434 38.4554 45.0879 37.8233 42.66C37.5434 41.5823 37.2249 40.6078 36.8905 40.043C36.7182 39.7516 36.9092 38.5545 37.3899 36.7814C37.6712 37.2668 38.8578 39.3436 39.0962 40.013C39.3645 40.7695 39.4208 40.9863 39.4208 40.9863C39.4208 40.9863 38.7699 37.6413 37.7021 35.6895C37.9363 34.9003 38.2159 34.0282 38.5323 33.0959C38.9021 33.7444 39.7428 35.2336 40.0466 35.9393C40.0747 36.0047 40.1 36.0661 40.1185 36.1167C40.1616 36.2391 40.198 36.3429 40.2305 36.438C40.4019 36.9345 40.4436 37.0924 40.4436 37.0924C40.4436 37.0924 40.3801 36.7676 40.262 36.2665C40.212 36.0548 40.1499 35.8059 40.0808 35.5409C39.8117 34.5075 39.403 33.1547 38.8796 32.0946C40.223 25.1116 44.547 15.9681 49.2055 11.0318C49.607 10.6067 50.0103 10.2088 50.4144 9.85019C53.1376 7.43611 55.8969 6.6207 58.1757 8.65066C59.8243 10.1197 60.4988 12.1487 60.5 14.4845V14.0625C60.5 6.29599 54.204 0 46.4375 0H14.5625Z" fill="url(#paint0_linear_240_101)"/>
<path id="Vector_4" d="M58.1757 8.65067C55.8969 6.6207 53.1376 7.43611 50.4144 9.8502C50.0103 10.2088 49.607 10.6067 49.2055 11.0318C44.547 15.9681 40.223 25.1116 38.8796 32.0946C39.403 33.1547 39.8117 34.5075 40.0808 35.5409C40.1499 35.8059 40.212 36.0548 40.262 36.2665C40.3801 36.7676 40.4436 37.0924 40.4436 37.0924C40.4436 37.0924 40.4019 36.9345 40.2305 36.4381C40.198 36.3429 40.1616 36.2391 40.1185 36.1167C40.1 36.0661 40.0747 36.0047 40.0466 35.9393C39.7428 35.2336 38.9021 33.7444 38.5323 33.0959C38.2159 34.0282 37.9363 34.9003 37.7021 35.6895C38.7699 37.6413 39.4208 40.9863 39.4208 40.9863C39.4208 40.9863 39.3645 40.7695 39.0962 40.013C38.8578 39.3436 37.6712 37.2668 37.3899 36.7814C36.9092 38.5545 36.7182 39.7516 36.8905 40.043C37.2249 40.6078 37.5434 41.5823 37.8233 42.66C38.4554 45.0879 38.8946 48.0434 38.8946 48.0434C38.8946 48.0434 38.9089 48.2393 38.9326 48.5407C38.8449 50.5795 38.8974 52.6934 39.0556 54.604C39.2649 57.1331 39.6591 59.306 40.1616 60.4688L40.5027 60.2829C39.7648 57.9921 39.4651 54.9898 39.5963 51.5271C39.7948 46.2347 41.0143 39.8522 43.2671 33.1999C47.0734 23.1577 52.3543 15.1005 57.1876 11.2527C52.7823 15.2266 46.82 28.0898 45.0352 32.8533C43.037 38.1874 41.6206 43.1932 40.7673 47.989C42.2398 43.493 47.0012 41.5603 47.0012 41.5603C47.0012 41.5603 49.3365 38.6836 52.0655 34.5736C50.4308 34.946 47.7465 35.5835 46.8472 35.9609C45.5211 36.5166 45.1637 36.7062 45.1637 36.7062C45.1637 36.7062 49.4598 34.0929 53.1455 32.9098C58.2146 24.9352 63.7369 13.6062 58.1757 8.65067Z" fill="#003B57"/>
<path id="Vector_5" d="M7.18442 11.4844C6.46651 11.4844 5.88273 11.6941 5.43519 12.1133C4.98765 12.5328 4.76061 13.0827 4.76061 13.7566C4.76061 14.1058 4.817 14.4242 4.92809 14.7159C5.03919 15.0083 5.21206 15.2791 5.44449 15.5238C5.67692 15.7688 6.14216 16.1015 6.83551 16.5245C7.68631 17.037 8.24309 17.4529 8.5103 17.7777C8.77773 18.1021 8.91041 18.4422 8.91041 18.7967C8.91041 19.2714 8.75204 19.6503 8.42659 19.9351C8.10055 20.22 7.66454 20.362 7.12395 20.362C6.55377 20.362 6.0571 20.1637 5.63059 19.7699C5.20407 19.3755 4.98877 18.8538 4.98392 18.2H4.71875V20.5732H4.98392C5.06487 20.3484 5.17691 20.2335 5.32353 20.2335C5.39408 20.2335 5.55931 20.2815 5.81668 20.3712C6.44286 20.591 6.95703 20.6971 7.36121 20.6971C8.05775 20.6971 8.65231 20.4564 9.14766 19.9672C9.64229 19.4783 9.89204 18.8885 9.89204 18.2C9.89204 17.6661 9.72716 17.1911 9.40355 16.777C9.07993 16.3624 8.45059 15.8802 7.51009 15.3265C6.70079 14.8467 6.17546 14.4559 5.93298 14.1513C5.69014 13.8472 5.56545 13.5107 5.56545 13.1415C5.56545 12.7421 5.71414 12.4213 6.00741 12.1821C6.30069 11.9427 6.68497 11.8241 7.16581 11.8241C7.70696 11.8241 8.15804 11.9825 8.51497 12.3015C8.87152 12.6209 9.0777 13.0637 9.13836 13.6326H9.40355V11.5762H9.15697C9.12683 11.681 9.09891 11.748 9.07323 11.7782C9.04829 11.8081 9.00029 11.8241 8.92902 11.8241C8.84323 11.8241 8.69026 11.7884 8.47311 11.7185C8.00788 11.5639 7.57895 11.4844 7.18442 11.4844ZM15.8515 11.4844C14.9767 11.4844 14.1825 11.6878 13.4649 12.0949C12.7463 12.5012 12.1774 13.0654 11.7576 13.7841C11.3379 14.5027 11.1295 15.2659 11.1295 16.0792C11.1295 17.172 11.492 18.1455 12.2228 18.9987C12.9539 19.8514 13.8301 20.3827 14.8467 20.5869C15.0791 20.7064 15.4116 21.0149 15.8469 21.5142C16.3374 22.0776 16.7524 22.484 17.0937 22.726C17.4346 22.9681 17.8027 23.1456 18.1916 23.2631C18.5809 23.3801 19.0018 23.4375 19.457 23.4375C20.0082 23.4375 20.5017 23.343 20.9364 23.1483L20.8387 22.9096C20.5864 22.9994 20.3173 23.0427 20.0339 23.0427C19.6492 23.0427 19.2605 22.9176 18.8708 22.6663C18.4817 22.4145 17.9951 21.9339 17.4147 21.225C17.1419 20.8853 16.9535 20.671 16.8471 20.5869C17.9594 20.3726 18.874 19.8407 19.5873 18.9895C20.3004 18.1387 20.6573 17.1676 20.6573 16.0792C20.6573 14.787 20.1913 13.701 19.2663 12.8156C18.3405 11.93 17.202 11.4844 15.8515 11.4844ZM21.2621 11.4844L21.276 11.7644C21.8585 11.7644 22.1847 11.9337 22.2576 12.2739C22.2848 12.3956 22.2973 12.6204 22.2995 12.9441L22.2949 19.1364C22.29 19.5989 22.2232 19.8942 22.0948 20.0223C21.9662 20.1496 21.7489 20.2293 21.4342 20.261L21.4203 20.541H27.2262L27.3751 19.1364H27.11C27.0343 19.519 26.8606 19.7932 26.5843 19.9489C26.307 20.1057 25.8172 20.183 25.1094 20.183H24.5605C23.9237 20.183 23.5553 19.9558 23.4579 19.499C23.4378 19.4087 23.4309 19.3117 23.43 19.2052L23.4533 12.9441C23.4531 12.4823 23.5123 12.1729 23.6347 12.0214C23.7585 11.8705 23.9816 11.786 24.3045 11.7644L24.2907 11.4844H21.2621ZM15.9446 11.8241C16.9312 11.8241 17.7368 12.2075 18.3591 12.9808C18.9812 13.7544 19.2895 14.8147 19.2895 16.1573C19.2895 17.4295 18.9767 18.4482 18.3498 19.2144C17.7228 19.9804 16.8884 20.362 15.8515 20.362C14.8554 20.362 14.0476 19.9685 13.4277 19.1777C12.8084 18.3869 12.5019 17.3602 12.5019 16.0976C12.5019 14.8002 12.8121 13.7617 13.437 12.9854C14.0615 12.21 14.8978 11.8241 15.9446 11.8241ZM29.2965 13.1552C29.1549 13.1552 29.0469 13.2024 28.9662 13.2975C28.8835 13.3923 28.8582 13.507 28.887 13.6464C28.9149 13.7816 28.9923 13.9001 29.1151 13.9999C29.2372 14.0995 29.3689 14.1513 29.5105 14.1513C29.6473 14.1513 29.7519 14.0995 29.8269 13.9999C29.9019 13.9001 29.9246 13.7816 29.8967 13.6464C29.8677 13.507 29.7931 13.3923 29.678 13.2975C29.5616 13.2024 29.4334 13.1552 29.2965 13.1552ZM33.1252 14.1054C32.8845 15.0188 32.363 15.513 31.5622 15.5927L31.5713 15.8543H32.5065L32.488 18.9482C32.4894 19.4771 32.5058 19.8293 32.5438 20.0085C32.6359 20.4377 32.9199 20.6558 33.395 20.6558C34.0827 20.6558 34.8041 20.2425 35.5583 19.4164L35.3305 19.2236C34.7858 19.7676 34.3041 20.0407 33.8837 20.0407C33.6252 20.0407 33.4648 19.894 33.4044 19.6046C33.3877 19.5343 33.3812 19.4522 33.3812 19.3567L33.3905 15.8543H34.8186L34.8048 15.4366H33.395V14.1054H33.1252ZM38.6473 15.2714C37.8486 15.2714 37.1987 15.654 36.6936 16.4144C36.1909 17.176 36.0352 18.0198 36.233 18.9482C36.3493 19.492 36.5809 19.9135 36.9355 20.2105C37.2894 20.5075 37.7384 20.6558 38.2752 20.6558C38.7751 20.6558 39.4712 20.5309 39.7639 20.2794C40.0576 20.028 40.3283 19.6207 40.5781 19.063L40.378 18.8564C39.9795 19.58 39.1749 19.9443 38.5684 19.9443C37.7342 19.9443 37.2235 19.4928 37.0332 18.5948C37.0084 18.4801 36.9898 18.357 36.9772 18.2275C37.9695 18.0725 38.7214 17.798 39.2291 17.4013C39.736 17.0043 40.2453 16.5835 40.1502 16.1389C40.0934 15.8748 39.9545 15.6671 39.7407 15.5101C39.5241 15.3531 38.9616 15.2714 38.6473 15.2714ZM29.9152 15.3035L28.194 15.6937V15.9966L28.7893 15.9232C29.0778 15.9232 29.2475 16.0521 29.3012 16.3088C29.3192 16.3947 29.3305 16.5153 29.3337 16.6668L29.315 19.4439C29.3103 19.8282 29.267 20.0516 29.1802 20.1187C29.0926 20.1859 28.8615 20.2197 28.487 20.2197L28.4776 20.4814H31.2085L31.2038 20.2197C30.8244 20.2197 30.5785 20.1902 30.4688 20.1325C30.361 20.0752 30.287 19.9709 30.2548 19.8112C30.23 19.6961 30.2192 19.4977 30.2176 19.2236L30.227 15.3035H29.9152ZM38.2102 15.8176C38.3764 15.8176 38.537 15.8809 38.6987 16.0058C38.858 16.1302 38.9553 16.2686 38.987 16.4189C39.1428 17.1573 38.4793 17.6677 36.9866 17.9521C36.9439 17.4137 37.0386 16.925 37.2798 16.4832C37.5191 16.0418 37.8308 15.8176 38.2102 15.8176Z" fill="#003B57"/>
</g>
</g>
</g>
</g>
<defs>
<linearGradient id="paint0_linear_240_101" x1="35.097" y1="1.22787" x2="35.097" y2="56.6632" gradientUnits="userSpaceOnUse">
<stop stop-color="#97D9F6"/>
<stop offset="0.920245" stop-color="#0F80CC"/>
<stop offset="1" stop-color="#0F80CC"/>
</linearGradient>
<clipPath id="clip0_240_101">
<rect width="60" height="60" fill="white" transform="translate(0.5)"/>
</clipPath>
</defs>
</svg>
